# xmcd
#
# Track frame offsets:
#	150
#	18452
#	33342
#	46937
#	59960
#	71665
#	83617
#	94277
#	106757
#	118610
#	129270
#	143097
#	157947
#	173355
#	187082
#
# Disc length: 2612 seconds
#
# Revision: 1
# Processed by: cddbd v1.4PL0 Copyright (c) Steve Scherf et al.
# Submitted via: audiograbber 1.81.02
#
DISCID=c20a320f
DTITLE=Barbara Clear - Pur and Zeitlos VOL.2
DYEAR=2000
DGENRE=Instrumental Rock
TTITLE0=The Leader of the Band
TTITLE1=Genie in a Bottle
TTITLE2=Stand by me
TTITLE3=Ironic
TTITLE4=Cottonfields
TTITLE5=Rose Garden
TTITLE6=In the Ghetto
TTITLE7=That don't impress me much
TTITLE8=Landslide
TTITLE9=Revolution
TTITLE10=Strasse zur Sonne
TTITLE11=Dov` é L' Amore
TTITLE12=Faraway Eyes
TTITLE13=Wonderful tonight
TTITLE14=Steh auf
EXTD=
EXTT0=
EXTT1=
EXTT2=
EXTT3=
EXTT4=
EXTT5=
EXTT6=
EXTT7=
EXTT8=
EXTT9=
EXTT10=
EXTT11=
EXTT12=
EXTT13=
EXTT14=
PLAYORDER=
